<svg height="8.26772in" style="shape-rendering:geometricPrecision; text-rendering:geometricPrecision; image-rendering:optimizeQuality; fill-rule:evenodd; clip-rule:evenodd" version="1.1" viewBox="0 0 826772 826772" width="8.26772in" xml:space="preserve" xmlns="http://www.w3.org/2000/svg" xmlns:xlink="http://www.w3.org/1999/xlink"><defs><style type="text/css">
   <![CDATA[
    .fil0 {fill:#555151}
    .fil1 {fill:#2E373C;fill-rule:nonzero}
    .fil2 {fill:white;fill-rule:nonzero}
   ]]>
  </style></defs><g id="Layer_x0020_1"><polygon class="fil0" points="0,0 826772,0 826772,826772 0,826772 "/><g id="_2016287035120"><path class="fil1" d="M692725 294920c0,0 -5549,-40852 -22559,-58826 -21608,-23562 -45831,-23713 -56893,-25075 -79564,-5966 -198788,-5966 -198788,-5966l-265 0c0,0 -119301,0 -198790,5983 -11099,1345 -35283,1496 -56930,25076 -17007,17973 -22557,58828 -22557,58828 0,0 -5703,47915 -5703,95869l0 44925c0,47975 5703,95930 5703,95930 0,0 5550,40812 22557,58788 21647,23597 50055,22839 62670,25302 45455,4546 193164,5965 193164,5965 0,0 119375,-225 198939,-6174 11062,-1382 35283,-1496 56893,-25113 17010,-17973 22556,-58788 22556,-58788 0,0 5704,-47935 5704,-95910l0 -44925c0,-47954 -5701,-95889 -5701,-95889zm-337028 195322l0 0 -40 -166458 153506 83542 -153466 82916z"/></g><g id="_2016287035344"><path class="fil2" d="M677105 294920c0,0 -5549,-40852 -22559,-58826 -21608,-23562 -45832,-23713 -56894,-25075 -79563,-5966 -198787,-5966 -198787,-5966l-265 0c0,0 -119301,0 -198791,5983 -11098,1345 -35282,1496 -56930,25076 -17007,17973 -22556,58828 -22556,58828 0,0 -5703,47915 -5703,95869l0 44925c0,47975 5703,95930 5703,95930 0,0 5549,40812 22556,58788 21648,23597 50056,22839 62671,25302 45455,4546 193164,5965 193164,5965 0,0 119375,-225 198938,-6174 11062,-1382 35283,-1496 56894,-25113 17010,-17973 22556,-58788 22556,-58788 0,0 5703,-47935 5703,-95910l0 -44925c0,-47954 -5700,-95889 -5700,-95889zm-337029 195322l0 0 -39 -166458 153506 83542 -153467 82916z"/></g></g></svg>